<?xml version="1.0" encoding="UTF-8" standalone="no"?>
<!-- Created with Inkscape (http://www.inkscape.org/) -->

<svg
   xmlns:dc="http://purl.org/dc/elements/1.1/"
   xmlns:cc="http://creativecommons.org/ns#"
   xmlns:rdf="http://www.w3.org/1999/02/22-rdf-syntax-ns#"
   xmlns:svg="http://www.w3.org/2000/svg"
   xmlns="http://www.w3.org/2000/svg"
   xmlns:sodipodi="http://sodipodi.sourceforge.net/DTD/sodipodi-0.dtd"
   xmlns:inkscape="http://www.inkscape.org/namespaces/inkscape"
   width="21mm"
   height="110mm"
   viewBox="0 0 21 110"
   version="1.1"
   id="svg8"
   inkscape:version="0.92.4 (5da689c313, 2019-01-14)"
   sodipodi:docname="special-offers-bg.svg">
  <defs
     id="defs2" />
  <sodipodi:namedview
     id="base"
     pagecolor="#ffffff"
     bordercolor="#666666"
     borderopacity="1.0"
     inkscape:pageopacity="0.0"
     inkscape:pageshadow="2"
     inkscape:zoom="0.7"
     inkscape:cx="-234.48098"
     inkscape:cy="403.26148"
     inkscape:document-units="mm"
     inkscape:current-layer="layer1"
     showgrid="false"
     inkscape:window-width="1600"
     inkscape:window-height="838"
     inkscape:window-x="-8"
     inkscape:window-y="-8"
     inkscape:window-maximized="1" />
  <metadata
     id="metadata5">
    <rdf:RDF>
      <cc:Work
         rdf:about="">
        <dc:format>image/svg+xml</dc:format>
        <dc:type
           rdf:resource="http://purl.org/dc/dcmitype/StillImage" />
        <dc:title></dc:title>
      </cc:Work>
    </rdf:RDF>
  </metadata>
  <g
     inkscape:label="Layer 1"
     inkscape:groupmode="layer"
     id="layer1"
     transform="translate(0,-187)">
    <g
       id="g819"
       transform="matrix(0.26458333,0,0,0.26458333,4.6072545,278.1998)"
       style="fill:#ffffff;stroke:none;stroke-opacity:1">
      <path
         id="path815"
         d="m 37.91,30.438 v 10.869 c 0,0 0.105,2.735 -2.825,2.735 -3.069,0 -3.125,-2.735 -3.125,-2.735 v -6.416 c 0,-0.24 -0.336,-1.909 -2.319,-1.909 -2.625,0 -2.67,1.877 -2.67,1.877 V 54.08 c 0,0 0.029,1.863 -2.464,1.863 C 22,55.943 22,53.96 22,53.96 V 40.016 c 0,0 0,-2.945 -3.805,-2.945 -4.054,0 -3.967,3.125 -3.967,3.125 v 3.728 c 0,0 -0.121,2.945 -4.688,2.945 -4.567,0 -4.628,-4.509 -4.628,-4.509 V 29.938 C 3.168,28.976 0,26.671 0,26.671 V 56.003 C 0,56.003 2.988,65 22,65 41.012,65 44,56.305 44,56.305 V 26.671 c -2.938,2.829 -6.09,3.767 -6.09,3.767 z"
         inkscape:connector-curvature="0"
         style="stroke:none;stroke-opacity:1" />
      <path
         id="path817"
         d="M 22,0 C 1.688,0 0,19.875 0,19.875 v 3.062 C 8.438,29.188 22,29 22,29 c 0,0 13.562,0.188 22,-6.062 V 19.876 C 44,19.875 42.312,0 22,0 Z m 0,25 C 10.25,25 7.688,22.625 7.688,22.625 13.938,19.75 22,19.875 22,19.875 c 0,0 8.062,-0.125 14.312,2.75 0,0 -2.562,2.375 -14.312,2.375 z m 0,-12.375 c -9.562,0 -17.688,2.938 -17.688,2.938 C 8.875,2.625 22,3.062 22,3.062 c 0,0 13.125,-0.438 17.688,12.5 0,0 -8.126,-2.937 -17.688,-2.937 z"
         inkscape:connector-curvature="0"
         style="stroke:none;stroke-opacity:1" />
    </g>
    <g
       id="g834"
       transform="matrix(0.26458333,0,0,0.26458333,0.60538488,255.42739)"
       style="fill:#ffffff;stroke:none;stroke-opacity:1">
      <path
         id="path832"
         d="m 5.039,58.949 c 0,0 0,2.051 1.868,2.051 h 27.02 c 0,0 2.001,-0.184 2.001,-1.984 V 47.942 H 5.039 Z M 73.875,8.016 H 60.387 C 59.766,5.729 58.316,4.125 56.625,4.125 h -7.542 v 12.75 h 7.542 c 1.69,0 3.141,-1.604 3.762,-3.891 h 13.488 c 0.575,0 1.042,-1.112 1.042,-2.484 0,-1.372 -0.467,-2.484 -1.042,-2.484 z M 2.103,0 C 0.167,0 0,2.041 0,2.041 v 15.812 c 0,2.936 2.903,3.002 2.903,3.002 h 9.007 c 1.935,0 1.601,1.334 1.601,1.334 0,0 -2.469,13.01 -2.735,15.211 -0.267,2.203 -1.868,3.604 -1.868,3.604 0,0 -2.135,1.201 -3.002,1.668 -0.867,0.467 -0.867,2.201 -0.867,2.201 h 30.889 v -0.734 c 0,-1.467 -6.472,-3.135 -9.073,-3.402 -2.602,-0.266 -2.068,-2.002 -2.068,-2.002 l 1.067,-7.805 h 3.002 l 1.134,-7.873 h -3.002 l 0.331,-2.737 8.609,-0.131 c 5.805,-0.601 10.008,-4.07 10.008,-4.07 V 4.109 C 41.333,0.84 33.993,0 33.993,0 Z M 36,4.938 v 0.031 c 0,0.55 -0.45,1 -1,1 H 5.031 c -0.55,0 -1,-0.45 -1,-1 V 4.938 c 0,-0.55 0.45,-1 1,-1 H 35 c 0.55,0 1,0.45 1,1 z"
         inkscape:connector-curvature="0"
         style="stroke:none;stroke-opacity:1" />
    </g>
    <g
       id="g850"
       transform="matrix(0.26458333,0,0,0.26458333,0.10650554,188.52777)"
       style="fill:#ffffff;stroke:none;stroke-opacity:1">
      <path
         id="path846"
         d="M 16.125,29.749 C 7.22,29.749 0,36.968 0,45.875 0,54.78 7.22,62 16.125,62 25.03,62 32.25,54.78 32.25,45.875 32.251,36.968 25.031,29.749 16.125,29.749 Z m 0,23.433 a 7.306,7.306 0 0 1 -7.307,-7.307 7.307,7.307 0 1 1 14.614,0 7.306,7.306 0 0 1 -7.307,7.307 z m 44.729,-7.308 a 8.062,8.062 0 0 0 -8.062,8.062 8.062,8.062 0 1 0 16.124,0 8.06,8.06 0 0 0 -8.062,-8.062 z m 0,13.126 A 5.0630001,5.0630001 0 1 1 60.856,48.874 5.0630001,5.0630001 0 0 1 60.854,59 Z"
         inkscape:connector-curvature="0"
         style="stroke:none;stroke-opacity:1" />
      <path
         id="path848"
         d="m 77.898,49.727 c 0,0 -2.023,-15.102 -2.461,-18.414 -0.547,-4.141 -3.625,-4.688 -3.625,-4.688 L 66,25.946 V 14 h -3 v 5.833 h -4 v 5.295 L 47.188,23.75 c 0,0 -9.75,-20.062 -10.562,-21.875 C 35.814,0.062 33.5,0 33.5,0 33.5,0 11.125,2.375 8.75,3 6.375,3.625 5.312,6.167 5.312,6.167 3.004,12.537 3.001,23.463 3.046,26.422 a 23.328,23.328 0 0 1 13.079,-3.986 c 12.944,0 23.438,10.493 23.438,23.439 0,2.438 -0.373,4.789 -1.064,7 h 10.164 c 0.39,-6.402 5.69,-11.479 12.191,-11.479 6.501,0 11.802,5.077 12.191,11.479 H 75 c 3.641,0 2.898,-3.148 2.898,-3.148 z M 23.083,19.833 H 16.125 V 6.167 h 6.958 z m 10,0 H 26.125 V 6.167 h 6.958 z M 53.016,36 H 49 v -7 h 4.016 z m 7,0 H 56 v -7 h 4.016 z m 7,0 H 63 v -7 h 4.016 z"
         inkscape:connector-curvature="0"
         style="stroke:none;stroke-opacity:1" />
    </g>
    <g
       id="g871"
       transform="matrix(0.26458333,0,0,0.26458333,2.2314961,207.31386)"
       style="fill:#ffffff;stroke:none;stroke-opacity:1">
      <path
         id="path863"
         d="M 58.34,20.545 A 2.997,2.997 0 0 0 55.944,19.35 H 17.274 L 14.799,11.965 H 3.058 a 3,3 0 1 0 0,6 h 7.424 l 13.5,40.285 h 25.159 a 3,3 0 1 0 0,-6 H 28.299 l -1.726,-5.149 h 23.12 a 3.001,3.001 0 0 0 2.884,-2.172 l 6.25,-21.75 A 3.005,3.005 0 0 0 58.34,20.545 Z m -7.781,9.681 h -4.81 V 25.35 h 6.211 z m -17.617,0 V 25.35 h 6.807 v 4.875 h -6.807 z m 6.807,6 v 4.875 H 32.942 V 36.226 Z M 26.942,25.35 v 4.875 H 20.919 L 19.285,25.35 Z m -4.013,10.876 h 4.013 v 4.875 h -2.379 z m 22.82,4.875 v -4.875 h 3.086 l -1.401,4.875 z"
         inkscape:connector-curvature="0"
         style="stroke:none;stroke-opacity:1" />
      <circle
         id="circle865"
         r="5.7810001"
         cy="66.094002"
         cx="27.406"
         style="stroke:none;stroke-opacity:1" />
      <circle
         id="circle867"
         r="5.7810001"
         cy="66.094002"
         cx="44.844002"
         style="stroke:none;stroke-opacity:1" />
      <path
         id="path869"
         d="m 29.335,9.699 7.547,5.492 A 1.986,1.986 0 0 0 39.7,14.697 c 0.646,-0.936 0.43,-2.232 -0.48,-2.895 L 36.847,10.076 46.283,4.986 50.911,17 h 4.347 L 49.214,1.309 A 2.051,2.051 0 0 0 48.037,0.126 1.97,1.97 0 0 0 46.394,0.235 L 33.146,7.382 30.124,5.183 a 1.986,1.986 0 0 0 -2.742,0.39 l -8.481,10.798 a 2.176,2.176 0 0 0 -0.405,0.628 h 5.106 z"
         inkscape:connector-curvature="0"
         style="stroke:none;stroke-opacity:1" />
    </g>
    <g
       id="g892"
       transform="matrix(0.26458333,0,0,0.26458333,0.1178378,231.35221)"
       style="fill:#ffffff;stroke:none;stroke-opacity:1">
      <circle
         id="circle886"
         r="7.5"
         cy="55.5"
         cx="25.983"
         style="stroke:none;stroke-opacity:1" />
      <circle
         id="circle888"
         r="7.5"
         cy="55.5"
         cx="59.981998"
         style="stroke:none;stroke-opacity:1" />
      <path
         id="path890"
         d="M 64,0 H 11.062 c -3.188,0 -3,3.125 -3,3.125 V 8 H 3.469 a 3.469,3.469 0 1 0 0,6.938 l 28.085,1.84 0.196,0.043 c -0.761,3.197 -8.938,3.805 -8.938,3.805 l -8.31,0.428 H 5.446 a 3.375,3.375 0 1 0 0,6.75 l 23.656,1.254 c -0.807,3.153 -6.29,3.756 -6.29,3.756 l -14.751,0.76 v 15.615 c 0,3.188 2.564,3.812 2.564,3.812 h 2.099 c 1.173,-6.261 6.659,-11 13.259,-11 6.6,0 12.085,4.739 13.259,11 h 7.404 c 1.174,-6.261 6.66,-11 13.26,-11 6.601,0 12.086,4.739 13.26,11 h 1.709 C 77.812,53 78,48.938 78,48.938 V 33.688 C 78,14.812 64,0 64,0 Z M 52,23.938 v -15 h 10.062 l 5.75,15 z"
         inkscape:connector-curvature="0"
         style="stroke:none;stroke-opacity:1" />
    </g>
  </g>
</svg>
